<svg width="24" height="24" viewBox="0 0 24 24" fill="none" xmlns="http://www.w3.org/2000/svg">
<g clip-path="url(#clip0)">
<path d="M22.3083 23.5874C23.0146 23.5874 23.5873 23.0147 23.5873 22.3083V1.69163C23.5873 0.985107 23.0147 0.412567 22.3083 0.412567H1.69166C0.985138 0.412567 0.412598 0.985107 0.412598 1.69163V22.3083C0.412598 23.0146 0.985048 23.5874 1.69166 23.5874H22.3083Z" fill="#3C5A99"/>
<path d="M16.4027 23.5874V14.6129H19.415L19.8661 11.1153H16.4027V8.88233C16.4027 7.86971 16.6839 7.17964 18.1359 7.17964L19.988 7.17883V4.05059C19.6677 4.00796 18.5683 3.91273 17.2892 3.91273C14.619 3.91273 12.7908 5.54268 12.7908 8.53595V11.1153H9.77075V14.6129H12.7908V23.5874H16.4027Z" fill="white"/>
</g>
<defs>
<clipPath id="clip0">
<rect width="23.9998" height="24" fill="white" transform="translate(-0.00012207)"/>
</clipPath>
</defs>
</svg>
