<svg width="24" height="24" viewBox="0 0 24 24" fill="none" xmlns="http://www.w3.org/2000/svg">
<path d="M12.006 0.18182C7.07112 0.18182 5.62784 0.186911 5.3473 0.210184C4.33457 0.294365 3.70439 0.45382 3.01784 0.795638C2.48875 1.05837 2.07148 1.36291 1.65966 1.78982C0.909662 2.56837 0.455116 3.52618 0.290571 4.66473C0.210571 5.21746 0.187298 5.33018 0.182571 8.15346C0.180753 9.09455 0.182571 10.3331 0.182571 11.9944C0.182571 16.9253 0.188025 18.3671 0.211662 18.6471C0.29348 19.6325 0.448025 20.2525 0.775298 20.9307C1.40075 22.2289 2.5953 23.2035 4.00257 23.5671C4.48984 23.6925 5.02803 23.7616 5.71893 23.7944C6.01166 23.8071 8.9953 23.8162 11.9808 23.8162C14.9662 23.8162 17.9517 23.8125 18.2371 23.798C19.0371 23.7604 19.5017 23.698 20.0153 23.5653C21.4317 23.1998 22.6044 22.2398 23.2426 20.9235C23.5635 20.2616 23.7262 19.618 23.7998 18.684C23.8158 18.4804 23.8226 15.2336 23.8226 11.9913C23.8226 8.74837 23.8153 5.50764 23.7993 5.304C23.7248 4.35491 23.562 3.71673 23.2308 3.04218C22.9589 2.49 22.6571 2.07764 22.2189 1.656C21.4369 0.909093 20.4806 0.454547 19.3409 0.290184C18.7888 0.210365 18.6788 0.186729 15.8533 0.18182H12.006Z" fill="url(#paint0_radial)"/>
<path d="M12.006 0.18182C7.07112 0.18182 5.62784 0.186911 5.3473 0.210184C4.33457 0.294365 3.70439 0.45382 3.01784 0.795638C2.48875 1.05837 2.07148 1.36291 1.65966 1.78982C0.909662 2.56837 0.455116 3.52618 0.290571 4.66473C0.210571 5.21746 0.187298 5.33018 0.182571 8.15346C0.180753 9.09455 0.182571 10.3331 0.182571 11.9944C0.182571 16.9253 0.188025 18.3671 0.211662 18.6471C0.29348 19.6325 0.448025 20.2525 0.775298 20.9307C1.40075 22.2289 2.5953 23.2035 4.00257 23.5671C4.48984 23.6925 5.02803 23.7616 5.71893 23.7944C6.01166 23.8071 8.9953 23.8162 11.9808 23.8162C14.9662 23.8162 17.9517 23.8125 18.2371 23.798C19.0371 23.7604 19.5017 23.698 20.0153 23.5653C21.4317 23.1998 22.6044 22.2398 23.2426 20.9235C23.5635 20.2616 23.7262 19.618 23.7998 18.684C23.8158 18.4804 23.8226 15.2336 23.8226 11.9913C23.8226 8.74837 23.8153 5.50764 23.7993 5.304C23.7248 4.35491 23.562 3.71673 23.2308 3.04218C22.9589 2.49 22.6571 2.07764 22.2189 1.656C21.4369 0.909093 20.4806 0.454547 19.3409 0.290184C18.7888 0.210365 18.6788 0.186729 15.8533 0.18182H12.006Z" fill="url(#paint1_radial)"/>
<path d="M12.0005 3.27273C9.63028 3.27273 9.33282 3.28309 8.40192 3.32546C7.47282 3.368 6.83864 3.51509 6.28373 3.73091C5.70973 3.95382 5.22282 4.252 4.73773 4.73727C4.25228 5.22236 3.9541 5.70927 3.73046 6.28309C3.5141 6.83818 3.36682 7.47255 3.32501 8.40127C3.28337 9.33218 3.27246 9.62982 3.27246 12C3.27246 14.3702 3.28301 14.6667 3.32519 15.5976C3.36792 16.5267 3.51501 17.1609 3.73064 17.7158C3.95373 18.2898 4.25192 18.7767 4.73719 19.2618C5.2221 19.7473 5.70901 20.0462 6.28264 20.2691C6.83792 20.4849 7.47228 20.632 8.40119 20.6745C9.3321 20.7169 9.62937 20.7273 11.9994 20.7273C14.3697 20.7273 14.6663 20.7169 15.5972 20.6745C16.5263 20.632 17.1612 20.4849 17.7165 20.2691C18.2903 20.0462 18.7765 19.7473 19.2614 19.2618C19.7468 18.7767 20.045 18.2898 20.2686 17.716C20.4832 17.1609 20.6305 16.5265 20.6741 15.5978C20.7159 14.6669 20.7268 14.3702 20.7268 12C20.7268 9.62982 20.7159 9.33236 20.6741 8.40145C20.6305 7.47236 20.4832 6.83818 20.2686 6.28327C20.045 5.70927 19.7468 5.22236 19.2614 4.73727C18.7759 4.25182 18.2905 3.95364 17.7159 3.73091C17.1596 3.51509 16.525 3.368 15.5959 3.32546C14.665 3.28309 14.3686 3.27273 11.9977 3.27273H12.0005ZM11.2176 4.84546C11.4499 4.84509 11.7092 4.84546 12.0005 4.84546C14.3306 4.84546 14.6068 4.85382 15.527 4.89564C16.3779 4.93455 16.8397 5.07673 17.1474 5.19618C17.5546 5.35436 17.845 5.54345 18.1503 5.84891C18.4557 6.15436 18.6448 6.44527 18.8034 6.85255C18.9228 7.15982 19.0652 7.62164 19.1039 8.47255C19.1457 9.39255 19.1548 9.66891 19.1548 11.998C19.1548 14.3271 19.1457 14.6035 19.1039 15.5235C19.065 16.3744 18.9228 16.8362 18.8034 17.1435C18.6452 17.5507 18.4557 17.8407 18.1503 18.146C17.8448 18.4515 17.5548 18.6405 17.1474 18.7987C16.8401 18.9187 16.3779 19.0605 15.527 19.0995C14.607 19.1413 14.3306 19.1504 12.0005 19.1504C9.6701 19.1504 9.39392 19.1413 8.47392 19.0995C7.62301 19.0602 7.16119 18.918 6.85337 18.7985C6.4461 18.6404 6.15519 18.4513 5.84973 18.1458C5.54428 17.8404 5.35519 17.5502 5.19664 17.1427C5.07719 16.8355 4.93482 16.3736 4.8961 15.5227C4.85428 14.6027 4.84592 14.3264 4.84592 11.9958C4.84592 9.66527 4.85428 9.39036 4.8961 8.47036C4.93501 7.61946 5.07719 7.15764 5.19664 6.85C5.35482 6.44273 5.54428 6.15182 5.84973 5.84636C6.15519 5.54091 6.4461 5.35182 6.85337 5.19327C7.16101 5.07327 7.62301 4.93146 8.47392 4.89236C9.27901 4.856 9.59101 4.84509 11.2176 4.84327V4.84546ZM16.659 6.29455C16.0808 6.29455 15.6117 6.76309 15.6117 7.34145C15.6117 7.91964 16.0808 8.38873 16.659 8.38873C17.2372 8.38873 17.7063 7.91964 17.7063 7.34145C17.7063 6.76327 17.2372 6.29418 16.659 6.29418V6.29455ZM12.0005 7.51818C9.52537 7.51818 7.51864 9.52491 7.51864 12C7.51864 14.4751 9.52537 16.4809 12.0005 16.4809C14.4756 16.4809 16.4816 14.4751 16.4816 12C16.4816 9.52491 14.4754 7.51818 12.0003 7.51818H12.0005ZM12.0005 9.09091C13.607 9.09091 14.9096 10.3933 14.9096 12C14.9096 13.6065 13.607 14.9091 12.0005 14.9091C10.3937 14.9091 9.09137 13.6065 9.09137 12C9.09137 10.3933 10.3937 9.09091 12.0005 9.09091Z" fill="white"/>
<defs>
<radialGradient id="paint0_radial" cx="0" cy="0" r="1" gradientUnits="userSpaceOnUse" gradientTransform="translate(6.46138 25.6365) rotate(-90) scale(23.4234 21.7915)">
<stop stop-color="#FFDD55"/>
<stop offset="0.1" stop-color="#FFDD55"/>
<stop offset="0.5" stop-color="#FF543E"/>
<stop offset="1" stop-color="#C837AB"/>
</radialGradient>
<radialGradient id="paint1_radial" cx="0" cy="0" r="1" gradientUnits="userSpaceOnUse" gradientTransform="translate(-3.7782 1.8844) rotate(78.6776) scale(10.4705 43.1706)">
<stop stop-color="#3771C8"/>
<stop offset="0.128" stop-color="#3771C8"/>
<stop offset="1" stop-color="#6600FF" stop-opacity="0"/>
</radialGradient>
</defs>
</svg>
