<svg width="24" height="24" viewBox="0 0 24 24" fill="none" xmlns="http://www.w3.org/2000/svg">
<g clip-path="url(#clip0)">
<path d="M3.6982 0H20.3018C22.3442 0 24 1.65575 24 3.69822V20.3018C24 22.3442 22.3442 24 20.3018 24H3.6982C1.65575 24 0 22.3442 0 20.3017V3.69822C0 1.65575 1.65575 0 3.6982 0Z" fill="#4C75A3"/>
<path d="M11.7984 16.8008H12.7801C12.7801 16.8008 13.0766 16.7681 13.2282 16.605C13.3675 16.4551 13.3631 16.1738 13.3631 16.1738C13.3631 16.1738 13.3439 14.8565 13.9552 14.6625C14.558 14.4713 15.3319 15.9356 16.1522 16.4987C16.7725 16.9247 17.2439 16.8315 17.2439 16.8315L19.4373 16.8008C19.4373 16.8008 20.5847 16.73 20.0406 15.8279C19.9961 15.7542 19.7237 15.1605 18.4097 13.9408C17.0342 12.6643 17.2186 12.8708 18.8753 10.6626C19.8843 9.31782 20.2876 8.49686 20.1616 8.14528C20.0415 7.8103 19.2993 7.89878 19.2993 7.89878L16.8297 7.91405C16.8297 7.91405 16.6465 7.8891 16.5108 7.9703C16.378 8.04973 16.2929 8.23528 16.2929 8.23528C16.2929 8.23528 15.9018 9.27585 15.3807 10.1609C14.281 12.0283 13.8412 12.1271 13.6614 12.011C13.2432 11.7407 13.3477 10.9254 13.3477 10.3461C13.3477 8.53631 13.6222 7.78178 12.8132 7.58642C12.5448 7.52165 12.347 7.4788 11.6604 7.4718C10.7792 7.46285 10.0335 7.4745 9.61116 7.6814C9.33018 7.819 9.11341 8.12556 9.24551 8.14321C9.40876 8.16493 9.77833 8.24296 9.97431 8.50959C10.2275 8.85399 10.2186 9.62718 10.2186 9.62718C10.2186 9.62718 10.3641 11.7575 9.87898 12.0221C9.54613 12.2036 9.08943 11.8331 8.10898 10.1389C7.60671 9.27107 7.22736 8.31173 7.22736 8.31173C7.22736 8.31173 7.15431 8.13248 7.02383 8.03653C6.86558 7.92028 6.64446 7.88343 6.64446 7.88343L4.29756 7.89875C4.29756 7.89875 3.94531 7.9086 3.81588 8.06178C3.70073 8.19816 3.80668 8.47991 3.80668 8.47991C3.80668 8.47991 5.64393 12.7785 7.72446 14.9448C9.63233 16.9312 11.7984 16.8008 11.7984 16.8008Z" fill="white"/>
</g>
<defs>
<clipPath id="clip0">
<rect width="24" height="24" fill="white"/>
</clipPath>
</defs>
</svg>
