<svg width="24" height="18" viewBox="0 0 24 18" fill="none" xmlns="http://www.w3.org/2000/svg">
<path d="M23.5053 3.22892C23.2285 2.20092 22.418 1.39038 21.39 1.11361C19.5119 0.599609 11.9996 0.599609 11.9996 0.599609C11.9996 0.599609 4.48723 0.599609 2.60915 1.09384C1.60091 1.37061 0.770605 2.20092 0.493835 3.22892C-0.000396729 5.107 -0.000396729 9.00155 -0.000396729 9.00155C-0.000396729 9.00155 -0.000396729 12.9159 0.493835 14.7742C0.770605 15.8022 1.58115 16.6127 2.60915 16.8895C4.507 17.4035 11.9996 17.4035 11.9996 17.4035C11.9996 17.4035 19.5119 17.4035 21.39 16.9093C22.418 16.6325 23.2285 15.822 23.5053 14.7939C23.9995 12.9159 23.9995 9.02132 23.9995 9.02132C23.9995 9.02132 24.0193 5.107 23.5053 3.22892Z" fill="#FF0000"/>
<path d="M9.60751 12.5993L15.8546 9.00133L9.60751 5.40332V12.5993Z" fill="white"/>
</svg>
